<svg width="57" height="30" viewBox="0 0 57 30" fill="none" xmlns="http://www.w3.org/2000/svg">
<path d="M11.4 7.2C13.08 7.2 14.5733 7.56 15.88 8.28C17.2133 9 18.2533 10.0667 19 11.48C19.7733 12.8933 20.16 14.6 20.16 16.6V29.6H15.64V17.28C15.64 15.3067 15.1467 13.8 14.16 12.76C13.1733 11.6933 11.8267 11.16 10.12 11.16C8.41333 11.16 7.05333 11.6933 6.04 12.76C5.05333 13.8 4.56 15.3067 4.56 17.28V29.6H0V0H4.56V10.12C5.33333 9.18667 6.30667 8.46667 7.48 7.96C8.68 7.45333 9.98667 7.2 11.4 7.2Z" fill="#43403B"/>
<path d="M37.3766 7.2C39.0566 7.2 40.5499 7.56 41.8566 8.28C43.1899 9 44.2299 10.0667 44.9766 11.48C45.7499 12.8933 46.1366 14.6 46.1366 16.6V29.6H41.6166V17.28C41.6166 15.3067 41.1232 13.8 40.1366 12.76C39.1499 11.6933 37.8032 11.16 36.0966 11.16C34.3899 11.16 33.0299 11.6933 32.0166 12.76C31.0299 13.8 30.5366 15.3067 30.5366 17.28V29.6H25.9766V0H30.5366V10.12C31.3099 9.18667 32.2832 8.46667 33.4566 7.96C34.6566 7.45333 35.9632 7.2 37.3766 7.2Z" fill="#43403B"/>
<path d="M53.7931 29.88C52.9665 29.88 52.2731 29.6 51.7131 29.04C51.1531 28.48 50.8731 27.7867 50.8731 26.96C50.8731 26.1333 51.1531 25.44 51.7131 24.88C52.2731 24.32 52.9665 24.04 53.7931 24.04C54.5931 24.04 55.2731 24.32 55.8331 24.88C56.3931 25.44 56.6731 26.1333 56.6731 26.96C56.6731 27.7867 56.3931 28.48 55.8331 29.04C55.2731 29.6 54.5931 29.88 53.7931 29.88Z" fill="#12B379"/>
</svg>
